<svg width="307" height="236" viewBox="0 0 307 236" fill="none" xmlns="http://www.w3.org/2000/svg">
<path d="M20.3582 148.025C23.9604 148.025 27.5946 148.057 31.2611 148.121C34.9275 148.121 38.5297 148.186 42.0675 148.315C45.6053 148.444 48.918 148.669 52.0055 148.992L51.3301 159.725H25.7614C24.1533 159.725 22.9311 160.145 22.0949 160.982C21.3231 161.82 20.9371 163.046 20.9371 164.657V198.695C20.9371 200.307 21.3231 201.532 22.0949 202.37C22.9311 203.208 24.1533 203.627 25.7614 203.627H51.3301L52.0055 214.36C48.918 214.618 45.6053 214.844 42.0675 215.037C38.5297 215.166 34.9275 215.231 31.2611 215.231C27.5946 215.295 23.9604 215.327 20.3582 215.327C16.1128 215.327 12.6715 214.103 10.0342 211.653C7.4613 209.139 6.1748 205.883 6.1748 201.886V161.466C6.1748 157.405 7.4613 154.149 10.0342 151.699C12.6715 149.249 16.1128 148.025 20.3582 148.025ZM7.91155 175.101H47.7602V185.544H7.91155V175.101ZM75.9461 147.348L75.8496 199.759C75.8496 201.37 76.3321 202.596 77.2969 203.433C78.2618 204.207 79.6767 204.594 81.5423 204.594H85.4017L87.042 214.264C86.2701 214.65 85.1764 214.973 83.7615 215.231C82.3466 215.553 80.8993 215.778 79.4196 215.908C77.9399 216.101 76.6856 216.198 75.6567 216.198C71.3472 216.198 67.9378 215.07 65.4291 212.813C62.9205 210.557 61.6662 207.398 61.6662 203.337V147.348H75.9461ZM109.535 166.011C112.88 166.011 116.096 166.494 119.184 167.461C122.336 168.428 125.101 170.008 127.482 172.2L126.517 178.775C124.329 178.131 122.368 177.55 120.631 177.035C118.894 176.519 116.868 176.261 114.553 176.261C112.558 176.261 110.95 176.615 109.728 177.325C108.506 178.034 107.606 179.42 107.027 181.483C106.448 183.546 106.158 186.608 106.158 190.669C106.158 194.473 106.415 197.374 106.93 199.372C107.509 201.306 108.377 202.66 109.535 203.433C110.757 204.143 112.301 204.497 114.167 204.497C115.839 204.497 117.286 204.336 118.508 204.014C119.73 203.627 120.952 203.079 122.175 202.37C123.397 201.596 124.78 200.662 126.324 199.565L127.385 206.624C125.455 209.332 122.947 211.62 119.859 213.49C116.772 215.295 112.976 216.198 108.474 216.198C102.363 216.198 97.9887 214.006 95.3519 209.622C92.7785 205.238 91.4925 198.953 91.4925 190.766C91.4925 184.384 92.1355 179.42 93.4222 175.874C94.773 172.264 96.7992 169.718 99.5008 168.235C102.202 166.752 105.547 166.011 109.535 166.011ZM139.156 147.348V215.037H127.868L126.42 206.238L124.877 205.174V173.843L125.455 172.586C125.262 170.588 125.101 168.589 124.973 166.591C124.908 164.528 124.877 162.433 124.877 160.306V147.348H139.156ZM225.48 167.268L213.709 211.266C213.452 212.426 212.873 213.361 211.972 214.07C211.071 214.715 210.01 215.037 208.788 215.037H197.982C196.695 215.037 195.57 214.65 194.605 213.877C193.64 213.039 193.061 211.975 192.868 210.686L187.658 183.803C187.465 182.45 187.304 181.128 187.175 179.839C187.046 178.485 186.853 177.131 186.596 175.777H185.439C185.246 177.131 185.053 178.485 184.86 179.839C184.667 181.128 184.474 182.45 184.281 183.803L179.07 210.686C178.878 211.975 178.299 213.039 177.334 213.877C176.369 214.65 175.243 215.037 173.957 215.037H163.247C162.025 215.037 160.964 214.715 160.063 214.07C159.162 213.361 158.583 212.426 158.326 211.266L146.555 167.268H160.931L167.492 198.212C167.749 199.501 167.975 200.823 168.168 202.176C168.361 203.466 168.521 204.755 168.65 206.044H169.904C170.097 204.755 170.29 203.466 170.483 202.176C170.74 200.823 170.966 199.501 171.159 198.212L176.369 171.619C176.562 170.33 177.108 169.299 178.009 168.525C178.91 167.687 180.035 167.268 181.386 167.268H190.649C191.935 167.268 193.029 167.687 193.929 168.525C194.894 169.299 195.473 170.362 195.666 171.716L200.78 198.212C200.973 199.501 201.198 200.79 201.455 202.08C201.712 203.369 201.938 204.69 202.131 206.044H203.288C203.545 204.69 203.738 203.401 203.867 202.176C204.06 200.887 204.286 199.565 204.543 198.212L211.104 167.268H225.48ZM247.345 167.268V215.037H233.161V167.268H247.345ZM243.389 146.188C246.219 146.188 247.634 147.638 247.634 150.539V155.664C247.634 158.565 246.219 160.015 243.389 160.015H237.214C234.383 160.015 232.968 158.565 232.968 155.664V150.539C232.968 147.638 234.383 146.188 237.214 146.188H243.389ZM277.58 166.011C279.896 166.011 282.405 166.108 285.106 166.301C287.808 166.43 290.445 166.623 293.018 166.881C295.591 167.139 297.874 167.461 299.869 167.848L298.904 176.744C295.816 176.68 292.696 176.648 289.545 176.648C286.457 176.583 283.434 176.551 280.475 176.551C277.966 176.487 276.037 176.519 274.686 176.648C273.335 176.777 272.37 177.099 271.791 177.615C271.276 178.066 271.019 178.904 271.019 180.129C271.019 181.547 271.502 182.514 272.467 183.03C273.431 183.481 275.039 183.997 277.291 184.577L289.738 187.575C293.725 188.606 296.685 190.153 298.614 192.216C300.544 194.215 301.509 197.245 301.509 201.306C301.509 205.303 300.769 208.365 299.29 210.492C297.81 212.62 295.462 214.103 292.246 214.941C289.03 215.714 284.881 216.101 279.8 216.101C277.805 216.101 274.846 216.004 270.923 215.811C266.999 215.617 262.689 215.134 257.994 214.36L258.959 205.464C260.116 205.528 261.595 205.593 263.397 205.657C265.198 205.657 267.16 205.657 269.283 205.657C271.405 205.657 273.528 205.657 275.651 205.657C278.931 205.657 281.44 205.593 283.177 205.464C284.913 205.271 286.103 204.884 286.746 204.304C287.389 203.723 287.711 202.853 287.711 201.693C287.711 200.275 287.164 199.308 286.071 198.792C284.977 198.276 283.241 197.728 280.861 197.148L268.8 194.15C265.777 193.312 263.429 192.249 261.757 190.959C260.084 189.67 258.894 188.091 258.187 186.221C257.543 184.351 257.222 182.127 257.222 179.549C257.222 176.261 257.865 173.65 259.152 171.716C260.502 169.718 262.657 168.267 265.616 167.365C268.639 166.462 272.627 166.011 277.58 166.011Z" fill="white"/>
<path d="M244.925 145.387H234.804C233.314 145.387 232.105 146.598 232.105 148.092V158.235C232.105 159.729 233.314 160.94 234.804 160.94H244.925C246.416 160.94 247.624 159.729 247.624 158.235V148.092C247.624 146.598 246.416 145.387 244.925 145.387Z" fill="#0FA6B1"/>
<path d="M259.095 137.948H251.673C250.555 137.948 249.648 138.857 249.648 139.977V147.415C249.648 148.536 250.555 149.444 251.673 149.444H259.095C260.213 149.444 261.119 148.536 261.119 147.415V139.977C261.119 138.857 260.213 137.948 259.095 137.948Z" fill="#0FA6B1"/>
<path d="M244.25 133.891H239.527C238.782 133.891 238.178 134.497 238.178 135.244V139.977C238.178 140.724 238.782 141.33 239.527 141.33H244.25C244.996 141.33 245.6 140.724 245.6 139.977V135.244C245.6 134.497 244.996 133.891 244.25 133.891Z" fill="#0FA6B1"/>
</svg>
