<svg width="174" height="70" viewBox="0 0 174 70" fill="none" xmlns="http://www.w3.org/2000/svg">
<path d="M12.221 18.248C14.1623 18.248 16.141 18.248 18.157 18.248C20.2103 18.248 22.2263 18.2853 24.205 18.36C26.1836 18.4347 28.0503 18.5467 29.805 18.696L29.469 23.904H14.349C13.3036 23.904 12.5196 24.1653 11.997 24.688C11.5116 25.2107 11.269 26.032 11.269 27.152V48.208C11.269 49.328 11.5116 50.1493 11.997 50.672C12.5196 51.1947 13.3036 51.456 14.349 51.456H29.469L29.805 56.664C28.0503 56.8133 26.1836 56.9253 24.205 57C22.2263 57.0373 20.2103 57.056 18.157 57.056C16.141 57.0933 14.1623 57.112 12.221 57.112C9.83164 57.112 7.90897 56.4587 6.45297 55.152C5.0343 53.808 4.3063 52.016 4.26897 49.776V25.584C4.3063 23.344 5.0343 21.5707 6.45297 20.264C7.90897 18.92 9.83164 18.248 12.221 18.248ZM5.27697 34.208H27.341V39.36H5.27697V34.208ZM42.8705 17.8L42.8145 48.712C42.8145 49.7573 43.1131 50.56 43.7105 51.12C44.3078 51.6427 45.1665 51.904 46.2865 51.904H48.6945L49.4785 56.664C49.0678 56.8507 48.4891 57.0187 47.7425 57.168C47.0331 57.3173 46.2865 57.4107 45.5025 57.448C44.7558 57.5227 44.1025 57.56 43.5425 57.56C41.2651 57.56 39.4545 56.944 38.1105 55.712C36.7665 54.48 36.0945 52.7067 36.0945 50.392V17.8H42.8705ZM62.9985 28.832C64.8652 28.832 66.6945 29.0933 68.4865 29.616C70.2785 30.1013 71.9025 30.9227 73.3585 32.08L72.9105 35.496C71.4545 35.0853 70.1479 34.7307 68.9905 34.432C67.8332 34.1333 66.5452 33.984 65.1265 33.984C63.7825 33.984 62.6999 34.2267 61.8785 34.712C61.0945 35.16 60.4972 36.0373 60.0865 37.344C59.7132 38.6507 59.5265 40.5547 59.5265 43.056C59.5265 45.4453 59.7132 47.2933 60.0865 48.6C60.4599 49.8693 61.0385 50.7653 61.8225 51.288C62.6065 51.7733 63.6332 52.016 64.9025 52.016C65.9105 52.016 66.8065 51.904 67.5905 51.68C68.3745 51.4187 69.1772 51.0453 69.9985 50.56C70.8199 50.0373 71.7719 49.384 72.8545 48.6L73.4145 52.408C72.1452 53.864 70.5772 55.1147 68.7105 56.16C66.8812 57.168 64.7532 57.672 62.3265 57.672C58.8172 57.672 56.3159 56.44 54.8225 53.976C53.3292 51.4747 52.5825 47.8533 52.5825 43.112C52.5825 39.4907 52.9559 36.6533 53.7025 34.6C54.4865 32.5093 55.6439 31.0347 57.1745 30.176C58.7425 29.28 60.6839 28.832 62.9985 28.832ZM78.9025 17.8V57H73.5825L72.8545 52.072L72.1265 51.512V33.144L72.4625 32.36C72.3132 31.2773 72.2199 30.1947 72.1825 29.112C72.1452 27.992 72.1265 26.8533 72.1265 25.696V17.8H78.9025ZM128.626 29.504L121.346 55.208C121.196 55.7307 120.898 56.16 120.45 56.496C120.002 56.832 119.479 57 118.882 57H113.45C112.852 57 112.311 56.8133 111.826 56.44C111.34 56.0667 111.06 55.5627 110.986 54.928L107.346 38.072C107.196 37.3253 107.066 36.5787 106.954 35.832C106.879 35.0853 106.767 34.3387 106.618 33.592H105.89C105.778 34.3387 105.647 35.0853 105.498 35.832C105.386 36.5787 105.255 37.3253 105.106 38.072L101.522 54.928C101.41 55.5627 101.111 56.0667 100.626 56.44C100.178 56.8133 99.6364 57 99.0017 57H93.6257C93.0284 57 92.5057 56.832 92.0577 56.496C91.6097 56.16 91.3297 55.7307 91.2177 55.208L83.8817 29.504H90.7697L95.3617 48.376C95.5111 49.0853 95.6417 49.8133 95.7537 50.56C95.9031 51.2693 96.0337 51.9787 96.1457 52.688H96.8177C97.0044 51.9787 97.1537 51.2693 97.2657 50.56C97.4151 49.8133 97.5644 49.0853 97.7137 48.376L101.354 31.576C101.466 30.9787 101.727 30.4933 102.138 30.12C102.586 29.7093 103.146 29.504 103.818 29.504H108.746C109.343 29.504 109.866 29.7093 110.314 30.12C110.762 30.4933 111.042 30.9973 111.154 31.632L114.794 48.376C114.906 49.0853 115.036 49.7947 115.186 50.504C115.372 51.2133 115.522 51.9413 115.634 52.688H116.306C116.455 51.9413 116.586 51.232 116.698 50.56C116.81 49.8507 116.959 49.1227 117.146 48.376L121.738 29.504H128.626ZM140.49 29.504V57H133.77V29.504H140.49ZM138.642 17.576C139.986 17.576 140.658 18.248 140.658 19.592V22.728C140.658 24.072 139.986 24.744 138.642 24.744H135.618C134.274 24.744 133.602 24.072 133.602 22.728V19.592C133.602 18.248 134.274 17.576 135.618 17.576H138.642ZM158.224 28.832C159.493 28.832 160.856 28.8693 162.312 28.944C163.805 29.0187 165.261 29.1307 166.68 29.28C168.099 29.392 169.368 29.56 170.488 29.784L170.04 34.208C168.248 34.1707 166.456 34.1333 164.664 34.096C162.909 34.0213 161.173 33.984 159.456 33.984C157.925 33.984 156.712 34.0213 155.816 34.096C154.957 34.1707 154.341 34.3947 153.968 34.768C153.632 35.1413 153.464 35.776 153.464 36.672C153.464 37.7547 153.763 38.4827 154.36 38.856C154.957 39.192 155.928 39.528 157.272 39.864L164.776 41.6C167.016 42.16 168.677 43.0187 169.76 44.176C170.843 45.296 171.384 47.032 171.384 49.384C171.384 51.6613 170.955 53.3973 170.096 54.592C169.275 55.7493 167.949 56.552 166.12 57C164.328 57.4107 162.032 57.616 159.232 57.616C158.149 57.616 156.544 57.56 154.416 57.448C152.288 57.3733 149.955 57.1307 147.416 56.72L147.864 52.296C148.611 52.296 149.488 52.3147 150.496 52.352C151.541 52.3893 152.643 52.408 153.8 52.408C154.995 52.408 156.208 52.408 157.44 52.408C159.419 52.408 160.931 52.352 161.976 52.24C163.059 52.0907 163.805 51.8107 164.216 51.4C164.627 50.952 164.832 50.3173 164.832 49.496C164.832 48.4507 164.477 47.76 163.768 47.424C163.096 47.0507 162.088 46.696 160.744 46.36L153.408 44.568C151.728 44.12 150.421 43.56 149.488 42.888C148.555 42.1787 147.883 41.32 147.472 40.312C147.061 39.2667 146.856 37.9973 146.856 36.504C146.856 34.488 147.229 32.92 147.976 31.8C148.76 30.68 149.973 29.896 151.616 29.448C153.296 29 155.499 28.7947 158.224 28.832Z" fill="white"/>
<rect x="133" y="17" width="8" height="8" rx="2" fill="#0FA6B1"/>
<rect x="142" y="13" width="6" height="6" rx="1" fill="#0FA6B1"/>
<rect x="136" y="11" width="4" height="4" rx="1" fill="#0FA6B1"/>
</svg>
